<svg width="142" height="23" viewBox="0 0 142 23" fill="none" xmlns="http://www.w3.org/2000/svg">
<path d="M11.2387 22.4554C9.94079 22.4555 8.65265 22.2317 7.43088 21.7938C4.78645 20.8435 2.59448 18.9363 1.28781 16.4487C-0.0188646 13.9611 -0.345243 11.0739 0.373122 8.35742C1.09149 5.6409 2.80237 3.29247 5.16793 1.77587C7.53349 0.259275 10.3818 -0.315244 13.1503 0.165767C15.9188 0.646778 18.4063 2.14835 20.1217 4.37397C21.837 6.5996 22.6554 9.38747 22.4153 12.1871C22.1752 14.9867 20.894 17.5945 18.8248 19.4956C16.7555 21.3967 14.0487 22.4528 11.2387 22.4554ZM11.2387 2.05138C9.09847 2.05414 7.02794 2.81223 5.392 4.19205C3.75605 5.57187 2.65968 7.48485 2.29613 9.59385C1.93257 11.7028 2.32516 13.8725 3.4047 15.7204C4.48425 17.5682 6.18145 18.9758 8.19719 19.6949C10.4694 20.5028 12.9695 20.3749 15.1475 19.3395C17.3255 18.3042 19.003 16.446 19.8109 14.1739C20.6188 11.9017 20.491 9.40171 19.4555 7.22381C18.4201 5.04591 16.5619 3.36852 14.2896 2.56065C13.3045 2.21689 12.2677 2.04464 11.2244 2.05138H11.2387Z" fill="#1F1F1F"/>
<path d="M10.3476 20.9467C9.6432 20.9467 9.2767 21.0704 8.59606 20.8277L8.18197 19.6949C8.67458 19.8721 9.19745 19.9499 9.72033 19.9238C10.2432 19.8976 10.7557 19.7681 11.2282 19.5426C12.1802 19.0852 12.9138 18.2713 13.2701 17.2771C13.6244 16.2836 13.5697 15.1902 13.1181 14.237C12.6665 13.2839 11.8549 12.549 10.8617 12.1939C9.70361 11.7814 8.69387 11.0348 7.96011 10.0485C7.22636 9.06215 6.80155 7.88042 6.7394 6.65269C6.67724 5.42496 6.98054 4.20637 7.61093 3.15099C8.24133 2.09562 9.17051 1.25085 10.281 0.7235C11.7803 0.0143326 11.7089 0.875805 13.2891 1.42791L14.2744 2.57971C13.7795 2.39527 13.2528 2.31109 12.725 2.33206C12.1973 2.35303 11.6789 2.47873 11.2002 2.70185C10.7215 2.92497 10.2919 3.24106 9.93644 3.63172C9.58099 4.02238 9.30677 4.47983 9.12975 4.97744C8.95272 5.47505 8.87641 6.00289 8.90527 6.53026C8.93412 7.05763 9.06756 7.574 9.29782 8.04933C9.52808 8.52466 9.85057 8.94945 10.2465 9.29901C10.6425 9.64856 11.104 9.9159 11.6042 10.0855C12.7606 10.4998 13.7684 11.2471 14.5006 12.2333C15.2329 13.2195 15.6567 14.4004 15.7188 15.6271C15.7809 16.8538 15.4785 18.0715 14.8496 19.1265C14.2207 20.1816 13.2935 21.0269 12.1849 21.5559C11.3377 21.9557 11.2567 20.9467 10.3476 20.9467Z" fill="#1F1F1F"/>
<path d="M34.0244 2.04174H37.2139V10.1757H37.2617L44.4345 2.01794H48.2934L40.7859 10.4756L48.982 20.2183H44.9461L37.2952 10.9801L37.2474 11.0039V20.2183H34.0435L34.0244 2.04174Z" fill="#1F1F1F"/>
<path d="M53.0654 2.04187H58.3924C60.2573 2.04187 62.0744 2.16562 63.5137 2.94142C64.3242 3.35839 65.0001 3.99451 65.4636 4.77666C65.9272 5.55881 66.1596 6.45527 66.1342 7.36301C66.1342 9.82367 64.647 11.7322 62.0744 12.3605L67.5735 20.2185H63.815L58.7319 12.7127H56.2836V20.2185H53.0798L53.0654 2.04187ZM58.8036 10.252C60.2669 10.252 61.2519 10.0521 61.9836 9.52382C62.2895 9.29891 62.5347 9.00215 62.6974 8.66001C62.8601 8.31786 62.9352 7.94096 62.916 7.56291C62.9382 7.1102 62.8251 6.6611 62.591 6.2723C62.357 5.88349 62.0125 5.5724 61.601 5.37829C60.7929 4.95469 59.7839 4.90234 58.1963 4.90234H56.2501V10.252H58.8036Z" fill="#1F1F1F"/>
<path d="M71.668 2.04187H74.8718V20.2185H71.668V2.04187Z" fill="#1F1F1F"/>
<path d="M80.5581 15.6398C82.2411 16.7654 84.2076 17.3986 86.2341 17.4675C88.0512 17.4675 89.3662 16.7107 89.3662 15.0877C89.3662 13.1363 87.4535 12.8698 85.0626 12.1892C82.5139 11.4324 80.1182 10.3092 80.1182 7.1679C80.1182 4.02662 82.5904 2.05142 86.2724 2.05142C88.169 2.02648 90.0427 2.46616 91.7285 3.33173V6.44921C90.0926 5.42635 88.2129 4.85473 86.282 4.7929C84.5653 4.7929 83.3555 5.44971 83.3555 6.93944C83.3555 8.81469 85.2682 9.05742 87.4678 9.71424C90.1648 10.5186 92.5892 11.6656 92.5892 14.9069C92.5892 18.1481 90.0166 20.2185 86.2294 20.2185C84.2677 20.2059 82.3347 19.7485 80.5772 18.8811L80.5581 15.6398Z" fill="#1F1F1F"/>
<path d="M100.884 4.87829H94.9062V2.02258H110.117V4.87829H104.087V20.2182H100.884V4.87829Z" fill="#1F1F1F"/>
<path d="M127.558 20.2185H124.154L122.413 15.7731H114.542L112.768 20.2185H109.469L116.962 2.04187H120.094L127.558 20.2185ZM115.575 13.1458H121.376L120.314 10.4091C119.683 8.77658 119.08 7.16787 118.497 5.53535H118.449C117.842 7.22022 117.263 8.77658 116.632 10.4091L115.575 13.1458Z" fill="#1F1F1F"/>
<path d="M130.495 2.04187H133.699V17.3818H142V20.2375H130.495V2.04187Z" fill="#1F1F1F"/>
</svg>
