<svg width="142" height="38" viewBox="0 0 142 38" fill="none" xmlns="http://www.w3.org/2000/svg">
<g clip-path="url(#clip0_6083_12926)">
<path d="M0.0664062 14.6114V23.6156C1.28184 23.5732 2.43097 23.0554 3.26287 22.1754C4.09477 21.2953 4.54184 20.1244 4.50646 18.9185C4.48495 17.7659 4.00717 16.668 3.17635 15.8621C2.34553 15.0562 1.22841 14.6069 0.0664062 14.6114Z" fill="#0653C7"/>
<path d="M0.0664062 13.3756V12.3841C1.16294 12.1653 2.29964 12.2612 3.3432 12.6605C4.6625 13.1201 5.81032 13.9657 6.63518 15.0857C7.46004 16.2058 7.92319 17.5476 7.96348 18.9342C8.0028 20.347 7.59158 21.7361 6.78844 22.9034C5.9853 24.0708 4.83121 24.9569 3.49066 25.4355C2.41897 25.8489 1.24208 25.9116 0.131944 25.6143V24.6716C1.12127 24.7495 2.11513 24.5935 3.03191 24.2165C4.01927 23.7607 4.85339 23.0324 5.4345 22.1186C6.0156 21.2049 6.3191 20.1445 6.3087 19.0642C6.29882 17.9861 5.9872 16.932 5.40859 16.0193C4.82999 15.1067 4.00716 14.3715 3.03191 13.8957C2.1016 13.4829 1.08299 13.3043 0.0664062 13.3756Z" fill="#0653C7"/>
<path d="M0.0664062 11.8332V11.3131C1.45012 10.7227 2.985 10.575 4.45731 10.8906C6.35749 11.262 8.06957 12.2743 9.30295 13.7556C10.5363 15.2369 11.2151 17.0959 11.2239 19.0172C11.2555 20.9414 10.5977 22.8144 9.3676 24.3026C8.13747 25.7908 6.41485 26.7976 4.50646 27.1438C3.03254 27.4884 1.48921 27.398 0.0664062 26.8837V26.2336C1.44564 26.64 2.91424 26.64 4.29347 26.2336C5.87258 25.7847 7.26111 24.8373 8.2486 23.5351C9.2361 22.2328 9.76871 20.6467 9.76572 19.0172C9.79197 17.3942 9.2804 15.8075 8.30956 14.5009C7.33872 13.1942 5.96232 12.2399 4.39178 11.7845C2.98784 11.321 1.47034 11.321 0.0664062 11.7845V11.8332Z" fill="#0653C7"/>
<path d="M0.0664062 10.6774V10.1735C1.72487 9.20585 3.68192 8.87073 5.57143 9.23085C7.96681 9.57806 10.1594 10.7598 11.7565 12.5646C13.3536 14.3693 14.2509 16.6791 14.2877 19.0803C14.23 21.4892 13.3177 23.8008 11.7114 25.6082C10.1052 27.4157 7.90779 28.6034 5.50589 28.9622C3.64827 29.2628 1.74245 28.9666 0.0664062 28.1171V27.5645C1.74085 28.2454 3.57394 28.4481 5.35843 28.1496C7.48116 27.757 9.40019 26.6443 10.7867 25.0021C12.1733 23.36 12.941 21.2907 12.9585 19.1487C12.9759 17.0067 12.2419 14.9253 10.8823 13.2612C9.52262 11.5971 7.62195 10.4538 5.50589 10.0273C3.66893 9.67093 1.76548 9.89843 0.0664062 10.6774Z" fill="#0653C7"/>
<path d="M0.0664062 9.54012V9.21506C2.07385 7.94055 4.46862 7.4056 6.833 7.70351C9.68902 7.9868 12.3399 9.30324 14.28 11.4017C16.22 13.5001 17.3134 16.2337 17.3515 19.0808C17.389 21.9743 16.3137 24.7732 14.3444 26.908C12.3751 29.0428 9.65976 30.3529 6.75108 30.5718C4.39677 30.8713 2.01428 30.292 0.0664062 28.9465V28.6051C1.89746 29.685 4.02163 30.1735 6.14486 30.0029C6.45765 29.9865 6.76937 29.9539 7.07875 29.9054C9.67487 29.4571 12.0248 28.1052 13.7065 26.0926C15.3881 24.08 16.2913 21.5385 16.2538 18.9246C16.2163 16.3108 15.2406 13.7958 13.5019 11.8315C11.7631 9.86717 9.37539 8.58219 6.76746 8.20736C4.54262 7.88314 2.27223 8.30045 0.312165 9.39385L0.0664062 9.54012Z" fill="#0653C7"/>
<path fill-rule="evenodd" clip-rule="evenodd" d="M0.0664062 8.54901V8.27271C2.39218 6.58869 5.23671 5.7611 8.11094 5.93224C11.5327 6.08014 14.7601 7.5508 17.1026 10.0295C19.445 12.5082 20.7164 15.798 20.6447 19.1949C20.5839 22.6008 19.2402 25.8608 16.8782 28.3334C14.5161 30.8059 11.3067 32.3119 7.88157 32.555C5.03098 32.6563 2.24464 31.7001 0.0664062 29.8732V29.5319C2.36758 31.2988 5.2398 32.1715 8.14371 31.9861C14.173 31.7261 19.6125 25.8587 19.6125 19.1949C19.6875 16.0355 18.5612 12.9639 16.4574 10.5909C14.3536 8.21783 11.4266 6.71718 8.2584 6.38734C5.36547 6.17831 2.48436 6.92714 0.0664062 8.51651V8.54901Z" fill="#0653C7"/>
<path fill-rule="evenodd" clip-rule="evenodd" d="M0.0664062 7.65497V7.37867C2.7974 5.18397 6.25734 4.08237 9.76572 4.29055C13.6295 4.5091 17.2626 6.18571 19.9201 8.97661C22.5776 11.7675 24.0582 15.4612 24.0582 19.3004C24.0582 23.1396 22.5776 26.8333 19.9201 29.6242C17.2626 32.4151 13.6295 34.0917 9.76572 34.3102C6.21739 34.3222 2.78006 33.0838 0.0664062 30.8158V30.442C2.76117 32.5805 6.1184 33.7289 9.56912 33.6926C17.5481 33.2538 22.9385 27.3213 23.2661 19.0647C23.1759 15.4417 21.7536 11.9763 19.2671 9.32106C16.7806 6.66583 13.4014 5.00388 9.76572 4.64812C6.43492 4.45237 3.14078 5.42467 0.459622 7.39491L0.0664062 7.65497Z" fill="#0653C7"/>
<path d="M0.0664062 6.56722C3.19452 3.70593 7.28054 2.09615 11.5352 2.04883C20.5955 2.04883 27.9192 9.89913 27.9192 19.196C27.9593 23.6234 26.2433 27.889 23.1414 31.0725C20.0395 34.2561 15.8004 36.1023 11.3386 36.2131C7.17806 36.0954 3.19021 34.5371 0.0664062 31.8085V31.4996C3.21288 33.9791 7.04964 35.4425 11.0601 35.693C13.2092 35.6939 15.3366 35.2668 17.3163 34.437C19.296 33.6073 21.0876 32.3917 22.5849 30.8623C24.0823 29.333 25.2549 27.521 26.0333 25.5338C26.8116 23.5465 27.18 21.4245 27.1164 19.2935C27.1164 10.1429 20.3498 2.6827 11.0273 2.66645C6.99299 2.81369 3.12855 4.31503 0.0664062 6.92478V6.56722Z" fill="#0653C7"/>
<path fill-rule="evenodd" clip-rule="evenodd" d="M31.3594 19.1625C31.4095 16.7314 30.9703 14.3148 30.0675 12.0541C29.1647 9.79347 27.8164 7.73413 26.1016 5.99665C24.3867 4.25917 22.3398 2.87845 20.0805 1.9353C17.8212 0.992148 15.395 0.505505 12.9438 0.503852C10.5726 0.517989 8.22762 0.996163 6.04311 1.91097C3.85859 2.82577 1.87752 4.15922 0.213428 5.8349L0.0332031 6.01369V5.68863L0.115125 5.60736C1.76373 3.85219 3.75629 2.44951 5.97069 1.4853C8.18509 0.521087 10.5747 0.0156595 12.9929 0C15.508 0.010631 17.9962 0.5134 20.3151 1.47951C22.634 2.44561 24.7379 3.85607 26.5064 5.63009C28.2749 7.40411 29.6732 9.50683 30.6213 11.8178C31.5693 14.1288 32.0484 16.6026 32.0311 19.0975C32.0311 29.5158 23.5278 37.8537 14.2545 38C11.6516 38.1108 9.05307 37.6985 6.61485 36.788C4.17663 35.8774 1.94908 34.4874 0.0659718 32.7015V32.3114C3.53203 35.5328 8.08023 37.3631 12.8291 37.4474C22.1352 38 31.3594 29.4346 31.3594 19.1625H31.8181H31.3594Z" fill="#0653C7"/>
<path d="M39.9122 6.89077V16.0738H35.9473V1.42969H39.732L43.9427 6.74449V1.42969H47.842V16.0738H43.9427V11.9618L39.9122 6.89077Z" fill="black"/>
<path d="M61.2605 1.43087V16.0588H56.6238C55.6171 16.0831 54.6099 16.0397 53.6091 15.9287C53.0436 15.8663 52.4911 15.7183 51.9708 15.4899C51.037 15.0837 50.2772 14.3644 49.8244 13.4582C49.2878 12.3725 49.0289 11.1723 49.0708 9.96381C49.0874 8.61802 49.3027 7.28191 49.7098 5.99802C50.2131 4.41034 50.8716 2.87525 51.6758 1.41462H55.7718C54.983 2.99613 54.2935 4.62456 53.7075 6.29058C53.3302 7.37452 53.1203 8.5088 53.0849 9.65499C53.0237 10.4943 53.2743 11.3268 53.7894 11.9955C54.0753 12.26 54.4142 12.4618 54.784 12.5878C55.1538 12.7139 55.5462 12.7612 55.9357 12.7268H57.2955V1.34961L61.2605 1.43087Z" fill="black"/>
<path d="M71.4015 16.0735C70.2911 16.0877 69.1854 15.9286 68.1247 15.6022C67.1871 15.2696 66.3284 14.7496 65.6016 14.0744C64.6468 13.2231 63.8918 12.1745 63.3898 11.0025C62.8498 9.80672 62.576 8.50953 62.5869 7.19928C62.5713 6.30307 62.7385 5.41297 63.0785 4.58251C63.3703 3.83591 63.8497 3.17571 64.4711 2.66463C65.0161 2.21778 65.6539 1.89589 66.3389 1.72195C67.2725 1.50344 68.2307 1.40511 69.1897 1.42939H71.4834L72.4337 4.77755H69.5993C68.7438 4.70459 67.8887 4.92238 67.1745 5.39517C66.9133 5.66861 66.7139 5.99416 66.5896 6.3501C66.4652 6.70605 66.4189 7.0842 66.4536 7.45933C66.4247 8.18614 66.5564 8.91043 66.8395 9.58144C67.1225 10.2524 67.55 10.854 68.092 11.3438C69.2711 12.3508 70.7986 12.8636 72.3518 12.7741H72.6631L71.6637 16.0248L71.4015 16.0735Z" fill="black"/>
<path d="M73.8262 1.42969H77.7911V12.4981H82.9193L81.9035 16.0738H73.8262V1.42969Z" fill="black"/>
<path d="M94.0436 4.69658H88.129V6.95578H93.5193L92.5363 10.2714H88.129V12.7744H94.5351L93.4702 16.0738H84.1641V1.42969H93.1425L94.0436 4.69658Z" fill="black"/>
<path d="M107.971 1.43087V16.0588H103.285C102.278 16.0831 101.271 16.0397 100.27 15.9287C99.7045 15.8663 99.152 15.7183 98.6317 15.4899C97.7011 15.0791 96.9426 14.3612 96.4853 13.4582C95.9618 12.3686 95.709 11.1703 95.7481 9.96381C95.7647 8.61802 95.98 7.28191 96.387 5.99802C96.9028 4.41762 97.5665 2.88857 98.3695 1.43087H102.498C101.695 3.00601 101.006 4.63538 100.434 6.30684C100.049 7.38884 99.8391 8.52427 99.8113 9.67125C99.7418 10.5039 99.9871 11.3324 100.499 11.9955C100.785 12.2608 101.124 12.4632 101.494 12.5893C101.864 12.7154 102.256 12.7622 102.646 12.7268H104.006V1.34961L107.971 1.43087Z" fill="black"/>
<path d="M118.324 4.77842H114.425C114.227 4.76071 114.028 4.80022 113.852 4.89219C113.792 4.9339 113.744 4.99021 113.712 5.05568C113.68 5.12116 113.666 5.1936 113.671 5.26601C113.651 5.36796 113.651 5.47288 113.671 5.57483C113.755 5.70057 113.848 5.82007 113.95 5.93239L117.227 9.5081C117.677 9.98858 118.048 10.5372 118.324 11.1334C118.568 11.6407 118.692 12.1967 118.685 12.7587C118.689 13.2718 118.571 13.7786 118.341 14.2378C118.127 14.691 117.8 15.0826 117.39 15.3755C116.982 15.6574 116.519 15.8512 116.031 15.9444C115.218 16.0755 114.396 16.1299 113.573 16.1069H110.198L109.215 12.7262H113.524C113.703 12.7446 113.884 12.6985 114.032 12.5962C114.091 12.5466 114.138 12.4842 114.169 12.4138C114.201 12.3434 114.215 12.2668 114.212 12.1899C114.229 12.104 114.229 12.0157 114.212 11.9298C114.153 11.8143 114.081 11.7054 113.999 11.6048L110.46 7.68774C110.106 7.28878 109.823 6.83249 109.624 6.33872C109.433 5.87437 109.332 5.37777 109.33 4.87593C109.329 4.48969 109.39 4.10582 109.51 3.73821C109.625 3.38013 109.803 3.04468 110.034 2.74677C110.382 2.29328 110.854 1.94901 111.394 1.75532C112.209 1.52992 113.055 1.43123 113.901 1.46276H117.505L118.406 4.81093L118.324 4.77842Z" fill="black"/>
<path d="M141.508 24.444H135.594V26.7194H140.984L140.001 30.0188H135.594V32.5381H142L140.935 35.8375H131.629V21.1934H140.607L141.508 24.444Z" fill="black"/>
<path d="M126.665 29.5491C127.277 30.7083 127.955 31.8316 128.697 32.9135C129.366 33.8852 130.111 34.8036 130.925 35.6603L127.861 38.0008C126.726 36.723 125.701 35.3529 124.797 33.905C123.791 32.308 122.904 30.6403 122.143 28.9152C123.078 28.3456 123.951 27.681 124.748 26.9323C125.2 26.5396 125.492 25.996 125.567 25.4045C125.574 25.2807 125.55 25.1572 125.499 25.0441C125.448 24.931 125.37 24.8317 125.272 24.7544C125.026 24.5762 124.725 24.4898 124.42 24.5106H117.326L118.227 21.26H125.141C126.367 21.1856 127.581 21.5297 128.582 22.2352C128.992 22.5595 129.318 22.9768 129.532 23.4519C129.746 23.9271 129.841 24.4462 129.811 24.9657C129.817 25.8659 129.543 26.746 129.024 27.4849C128.399 28.3522 127.594 29.0779 126.665 29.6141V29.5491Z" fill="black"/>
<path d="M118.014 25.2422H121.979V35.8393H118.014V25.2422Z" fill="black"/>
<path d="M112.804 21.1946H115.18L116.081 24.4453H113.116C111.921 24.3833 110.734 24.6595 109.691 25.2417C108.783 25.8556 108.108 26.7541 107.774 27.7934H111.477V25.2579H115.459V35.8387H111.477V31.2066H107.332C107.363 32.0093 107.512 32.8032 107.774 33.5633C108.037 34.3609 108.395 35.1248 108.839 35.8387L105.694 37.8867C104.947 36.7659 104.352 35.5528 103.924 34.2784C103.519 33.0947 103.303 31.8552 103.285 30.6052C103.282 29.2426 103.537 27.8916 104.039 26.6232C104.462 25.452 105.139 24.387 106.021 23.5026C106.831 22.7099 107.811 22.1097 108.889 21.7472C110.152 21.3359 111.475 21.1381 112.804 21.1621V21.1946Z" fill="black"/>
<path d="M89.8657 30.994L91.7662 21.1934H95.5837L97.4842 31.0916L99.2865 21.1934H103.464L99.5978 35.8375H95.4199L93.6832 27.7922L91.9137 35.8375H87.7358L83.8691 21.1934H88.0307L89.8657 30.994Z" fill="black"/>
<path d="M79.675 35.8375H75.71V24.5903H71.5977L72.4824 21.1934H82.919L83.8037 24.5903H79.675V35.8375Z" fill="black"/>
<path d="M69.9604 21.1934L70.8615 24.5415H65.1107V26.7845H70.3536L69.3869 30.1651H65.1107V32.7656C65.1107 33.6541 65.1107 34.3368 65.1107 34.8135C65.1224 35.1603 65.1774 35.5042 65.2745 35.8375L61.8994 37.9992C61.5934 37.5029 61.3927 36.9498 61.3096 36.3738C61.1625 35.2968 61.1022 34.2098 61.1294 33.1232V21.1934H69.9604Z" fill="black"/>
<path fill-rule="evenodd" clip-rule="evenodd" d="M50.1834 26.9635C50.1814 27.6517 50.2528 28.3382 50.3964 29.0115C50.5267 29.6939 50.7356 30.3592 51.019 30.9943C51.2135 31.4939 51.5027 31.9518 51.871 32.3434C52.1348 32.6256 52.4992 32.7947 52.8868 32.8147C53.1321 32.8131 53.3715 32.7396 53.5749 32.6034C53.8109 32.4451 54.0117 32.2404 54.1647 32.002C54.6224 31.282 54.9703 30.4988 55.1969 29.6778C55.4458 28.8275 55.5726 27.9465 55.5737 27.0611C55.658 26.6939 55.6471 26.3115 55.5419 25.9497C55.4367 25.5879 55.2408 25.2584 54.9723 24.9921C54.7039 24.7259 54.3718 24.5315 54.0071 24.4271C53.6423 24.3228 53.2569 24.3119 52.8868 24.3955C52.1583 24.3439 51.4359 24.5577 50.8551 24.9969C50.625 25.2701 50.4527 25.5864 50.3485 25.9271C50.2444 26.2678 50.2105 26.6258 50.2489 26.9798L50.1834 26.9635ZM52.8868 21.0149C54.6912 20.8647 56.4909 21.3542 57.9658 22.3964C58.5429 22.9563 58.9889 23.6353 59.272 24.3853C59.5551 25.1352 59.6685 25.9377 59.6042 26.736C59.6042 28.0885 59.3886 29.4324 58.9652 30.718C58.5653 31.9345 57.9555 33.0729 57.163 34.0824C56.6397 34.7519 55.9812 35.3056 55.2297 35.7078C54.5043 36.056 53.709 36.2368 52.9031 36.2368C52.0973 36.2368 51.302 36.056 50.5766 35.7078C49.8252 35.312 49.1708 34.7571 48.6597 34.0824C47.855 33.0808 47.2439 31.9402 46.8575 30.718C46.4184 29.4358 46.197 28.0902 46.2021 26.736C46.132 25.9373 46.2427 25.1331 46.5262 24.3822C46.8096 23.6314 47.2587 22.9529 47.8405 22.3964C49.3184 21.3606 51.1157 20.8717 52.9195 21.0149H52.8868Z" fill="black"/>
<path d="M45.0568 24.5424H41.1738C40.9755 24.5228 40.7758 24.5624 40.6003 24.6562C40.5365 24.6939 40.4853 24.7496 40.4532 24.8161C40.4211 24.8826 40.4096 24.957 40.4201 25.03C40.3909 25.1254 40.3909 25.2272 40.4201 25.3226C40.4926 25.4568 40.5806 25.5823 40.6822 25.6964L43.959 29.2721C44.4014 29.7591 44.771 30.3064 45.0568 30.8974C45.2863 31.4089 45.4036 31.9629 45.4008 32.5227C45.408 33.0413 45.29 33.554 45.0568 34.0181C44.844 34.4721 44.5167 34.864 44.1065 35.1558C43.7044 35.4377 43.2464 35.6316 42.763 35.7246C41.9445 35.8481 41.1168 35.9024 40.289 35.8872H36.9303L35.9473 32.5065H40.2563C40.44 32.5144 40.6221 32.4692 40.7805 32.3765C40.8399 32.3269 40.887 32.2645 40.9182 32.1941C40.9494 32.1236 40.964 32.047 40.9608 31.9701C40.9522 31.8736 40.9243 31.7796 40.8788 31.6938C40.8133 31.5834 40.7364 31.4799 40.6495 31.385L37.1269 27.468C36.7727 27.069 36.49 26.6128 36.2913 26.119C36.0978 25.6495 35.9977 25.1472 35.9964 24.6399C35.9731 23.873 36.216 23.1213 36.6845 22.5108C37.0318 22.0536 37.5122 21.7132 38.0608 21.5356C38.8755 21.3073 39.7216 21.2085 40.5676 21.243H44.1556L45.0568 24.5912V24.5424Z" fill="black"/>
</g>
<defs>
<clipPath id="clip0_6083_12926">
<rect width="142" height="38" fill="white"/>
</clipPath>
</defs>
</svg>
