<svg width="512" height="78" fill="none" xmlns="http://www.w3.org/2000/svg"><path d="M213.629 2.102a45.48 45.48 0 0 0-19.899 0C176.621 5.994 164.473 19.949 164.473 39c0 19.052 12.06 32.977 29.213 36.899A45.213 45.213 0 0 0 203.694 77a44.094 44.094 0 0 0 9.861-1.101C230.634 71.99 242.813 57.905 242.813 39c0-18.904-12.149-33.006-29.184-36.898Zm-9.935 59.152c-13.005 0-21.227-9.724-21.227-22.254 0-12.53 8.222-22.253 21.227-22.253s21.124 9.93 21.124 22.253c0 12.324-8.119 22.254-21.124 22.254ZM296.231 2.102a45.48 45.48 0 0 0-19.899 0C259.224 5.994 247.074 19.949 247.074 39c0 19.052 12.075 32.977 29.214 36.899A45.32 45.32 0 0 0 286.296 77a43.995 43.995 0 0 0 9.861-1.101c17.094-3.907 29.272-17.994 29.272-36.899 0-18.904-12.119-33.006-29.198-36.898Zm-9.935 59.152c-13.005 0-21.212-9.724-21.212-22.254 0-12.53 8.207-22.253 21.212-22.253 13.005 0 21.109 9.93 21.109 22.239 0 12.31-8.089 22.268-21.109 22.268ZM349.214 60.226V2.264H331.5v73.444h61.275V60.18l-43.561.045ZM464.209 16.85V2.263h-64.951v73.444h17.714V45.786h37.672v-14.6h-37.672v-14.38l47.237.043ZM167.747 2.264l-24.632 73.444h-21.607l-16.686-48.612-16.92 48.612H67.588L42.94 2.264h18.434L79.397 56.21 97.361 2.264h16.157l15.79 47.282 2.115 6.27 17.919-53.552h18.405ZM-.007 2.264 24.64 75.708H42.94L18.294 2.264H-.007ZM507.157 2.264 482.51 75.708h-18.301l24.647-73.444h18.301Z" fill="#151515"/></svg>